<svg xmlns="http://www.w3.org/2000/svg" xmlns:xlink="http://www.w3.org/1999/xlink" width="500" zoomAndPan="magnify" viewBox="0 0 375 374.999991" height="500" preserveAspectRatio="xMidYMid meet" version="1.0"><defs><g/><clipPath id="39d6958386"><path d="M 117.027344 200 L 258 200 L 258 304.796875 L 117.027344 304.796875 Z M 117.027344 200 " clip-rule="nonzero"/></clipPath><clipPath id="1ea28477f7"><path d="M 117.027344 70.046875 L 258 70.046875 L 258 221 L 117.027344 221 Z M 117.027344 70.046875 " clip-rule="nonzero"/></clipPath></defs><g clip-path="url(#39d6958386)"><path fill="#000000" d="M 118.199219 206.890625 L 184.480469 302.992188 C 185.222656 304.042969 186.433594 304.667969 187.722656 304.667969 C 188.972656 304.667969 190.183594 304.042969 190.925781 302.992188 L 257.246094 206.890625 C 258.300781 205.410156 258.144531 203.382812 256.933594 202.054688 C 255.683594 200.6875 253.695312 200.375 252.132812 201.273438 L 187.722656 237.519531 L 123.316406 201.273438 C 121.753906 200.375 119.761719 200.726562 118.511719 202.054688 C 117.300781 203.382812 117.144531 205.410156 118.199219 206.890625 Z M 118.199219 206.890625 " fill-opacity="1" fill-rule="nonzero"/></g><g clip-path="url(#1ea28477f7)"><path fill="#000000" d="M 119.492188 182.339844 L 185.789062 219.648438 C 186.382812 219.984375 187.042969 220.148438 187.707031 220.148438 C 188.371094 220.148438 189.027344 219.984375 189.625 219.652344 L 255.953125 182.34375 C 256.886719 181.816406 257.5625 180.929688 257.824219 179.898438 C 258.085938 178.859375 257.90625 177.757812 257.335938 176.855469 L 191.003906 72.378906 C 189.570312 70.121094 185.839844 70.125 184.410156 72.378906 L 118.109375 176.851562 C 117.539062 177.753906 117.359375 178.855469 117.621094 179.894531 C 117.882812 180.929688 118.558594 181.816406 119.492188 182.339844 Z M 187.707031 81.753906 L 248.539062 177.554688 L 187.707031 211.769531 L 126.914062 177.554688 Z M 187.707031 81.753906 " fill-opacity="1" fill-rule="nonzero"/></g><g fill="#000000" fill-opacity="1"><g transform="translate(153.738275, 179.543931)"><g><path d="M 16.515625 0.5 C 11.972656 0.5 8.472656 -0.632812 6.015625 -2.90625 C 3.554688 -5.175781 2.101562 -8.085938 1.65625 -11.640625 L 10.421875 -11.640625 C 10.796875 -10.203125 11.507812 -9.082031 12.5625 -8.28125 C 13.613281 -7.488281 14.929688 -7.09375 16.515625 -7.09375 C 18.328125 -7.09375 19.75 -7.5625 20.78125 -8.5 C 21.820312 -9.445312 22.34375 -10.660156 22.34375 -12.140625 C 22.34375 -13.648438 21.804688 -14.859375 20.734375 -15.765625 C 19.660156 -16.671875 18.273438 -17.125 16.578125 -17.125 L 13.1875 -17.125 L 13.1875 -23.671875 L 16.734375 -23.671875 C 18.253906 -23.671875 19.46875 -24.066406 20.375 -24.859375 C 21.28125 -25.660156 21.734375 -26.742188 21.734375 -28.109375 C 21.734375 -29.515625 21.25 -30.640625 20.28125 -31.484375 C 19.320312 -32.335938 18.050781 -32.765625 16.46875 -32.765625 C 14.914062 -32.765625 13.675781 -32.363281 12.75 -31.5625 C 11.820312 -30.769531 11.191406 -29.671875 10.859375 -28.265625 L 2.4375 -28.265625 C 2.957031 -31.597656 4.332031 -34.351562 6.5625 -36.53125 C 8.800781 -38.707031 12.117188 -39.796875 16.515625 -39.796875 C 19.734375 -39.796875 22.367188 -39.210938 24.421875 -38.046875 C 26.472656 -36.890625 27.957031 -35.441406 28.875 -33.703125 C 29.800781 -31.960938 30.265625 -30.207031 30.265625 -28.4375 C 30.265625 -26.59375 29.835938 -25.066406 28.984375 -23.859375 C 28.140625 -22.660156 27.226562 -21.773438 26.25 -21.203125 C 25.269531 -20.628906 24.671875 -20.34375 24.453125 -20.34375 L 24.453125 -20.015625 C 29.140625 -17.648438 30.890625 -16.78125 29.703125 -17.40625 C 28.523438 -18.03125 28.398438 -17.695312 29.328125 -16.40625 C 30.253906 -15.113281 30.71875 -13.394531 30.71875 -11.25 C 30.71875 -9.144531 30.195312 -7.203125 29.15625 -5.421875 C 28.125 -3.648438 26.546875 -2.21875 24.421875 -1.125 C 22.296875 -0.0390625 19.660156 0.5 16.515625 0.5 Z M 16.515625 0.5 "/></g></g></g><g fill="#000000" fill-opacity="1"><g transform="translate(186.940628, 179.543931)"><g><path d="M 18.734375 -9.09375 L 1.828125 -9.140625 L 1.828125 -15.40625 L 16.359375 -38.8125 L 27.21875 -38.8125 L 27.21875 -15.640625 L 31.765625 -15.640625 L 31.765625 -9.09375 L 27.21875 -9.09375 L 27.21875 0 L 18.734375 0 Z M 18.734375 -15.796875 L 18.734375 -28.609375 L 10.59375 -15.796875 Z M 18.734375 -15.796875 "/></g></g></g></svg>