<svg xmlns="http://www.w3.org/2000/svg" xmlns:xlink="http://www.w3.org/1999/xlink" width="220" zoomAndPan="magnify" viewBox="0 0 165 54" height="72" preserveAspectRatio="xMidYMid meet" version="1.0"><defs><g/><clipPath id="c1327161ed"><path d="M 26 0 L 163.5 0 L 163.5 53.019531 L 26 53.019531 Z M 26 0 " clip-rule="nonzero"/></clipPath><clipPath id="3dd9dd751a"><rect x="0" width="138" y="0" height="54"/></clipPath><clipPath id="f05f4970df"><path d="M 0.53125 17 L 19.523438 17 L 19.523438 31.945312 L 0.53125 31.945312 Z M 0.53125 17 " clip-rule="nonzero"/></clipPath><clipPath id="215daef6ae"><path d="M 0.53125 0.328125 L 19.523438 0.328125 L 19.523438 21 L 0.53125 21 Z M 0.53125 0.328125 " clip-rule="nonzero"/></clipPath><clipPath id="0c516bf2ef"><rect x="0" width="20" y="0" height="33"/></clipPath></defs><g clip-path="url(#c1327161ed)"><g transform="matrix(1, 0, 0, 1, 26, -0.000000000000014165)"><g clip-path="url(#3dd9dd751a)"><g fill="#000000" fill-opacity="1"><g transform="translate(0.561666, 41.222169)"><g><path d="M 9.359375 -25.28125 L 9.359375 -18.59375 L 21.28125 -18.59375 L 21.28125 -13.171875 L 9.359375 -13.171875 L 9.359375 -6.09375 L 23.53125 -6.09375 L 23.53125 0 L 2.328125 0 L 2.328125 -31.375 L 23.53125 -31.375 L 23.53125 -25.28125 Z M 9.359375 -25.28125 "/></g></g></g><g fill="#000000" fill-opacity="1"><g transform="translate(25.920719, 41.222169)"><g><path d="M 25 -25.28125 L 16.765625 -25.28125 L 16.765625 0 L 9.8125 0 L 9.8125 -25.28125 L 1.5625 -25.28125 L 1.5625 -31.375 L 25 -31.375 Z M 25 -25.28125 "/></g></g></g><g fill="#000000" fill-opacity="1"><g transform="translate(52.444667, 41.222169)"><g><path d="M 28.140625 -31.375 L 28.140625 0 L 21.109375 0 L 21.109375 -13 L 9.328125 -13 L 9.328125 0 L 2.328125 0 L 2.328125 -31.375 L 9.328125 -31.375 L 9.328125 -18.46875 L 21.109375 -18.46875 L 21.109375 -31.375 Z M 28.140625 -31.375 "/></g></g></g><g fill="#000000" fill-opacity="1"><g transform="translate(82.911384, 41.222169)"><g><path d="M 13.359375 0.40625 C 9.679688 0.40625 6.847656 -0.507812 4.859375 -2.34375 C 2.867188 -4.1875 1.695312 -6.539062 1.34375 -9.40625 L 8.421875 -9.40625 C 8.722656 -8.238281 9.296875 -7.332031 10.140625 -6.6875 C 10.992188 -6.050781 12.066406 -5.734375 13.359375 -5.734375 C 14.816406 -5.734375 15.960938 -6.113281 16.796875 -6.875 C 17.640625 -7.632812 18.0625 -8.613281 18.0625 -9.8125 C 18.0625 -11.039062 17.625 -12.019531 16.75 -12.75 C 15.882812 -13.476562 14.769531 -13.84375 13.40625 -13.84375 L 10.671875 -13.84375 L 10.671875 -19.140625 L 13.53125 -19.140625 C 14.757812 -19.140625 15.738281 -19.457031 16.46875 -20.09375 C 17.195312 -20.738281 17.5625 -21.613281 17.5625 -22.71875 C 17.5625 -23.851562 17.171875 -24.765625 16.390625 -25.453125 C 15.617188 -26.140625 14.59375 -26.484375 13.3125 -26.484375 C 12.050781 -26.484375 11.046875 -26.160156 10.296875 -25.515625 C 9.554688 -24.878906 9.050781 -23.992188 8.78125 -22.859375 L 1.96875 -22.859375 C 2.382812 -25.546875 3.492188 -27.769531 5.296875 -29.53125 C 7.109375 -31.289062 9.796875 -32.171875 13.359375 -32.171875 C 15.953125 -32.171875 18.078125 -31.703125 19.734375 -30.765625 C 21.398438 -29.828125 22.601562 -28.65625 23.34375 -27.25 C 24.09375 -25.84375 24.46875 -24.421875 24.46875 -22.984375 C 24.46875 -21.492188 24.125 -20.257812 23.4375 -19.28125 C 22.75 -18.3125 22.007812 -17.597656 21.21875 -17.140625 C 20.425781 -16.679688 19.941406 -16.453125 19.765625 -16.453125 L 19.765625 -16.171875 C 23.554688 -14.265625 24.972656 -13.5625 24.015625 -14.0625 C 23.054688 -14.570312 22.953125 -14.304688 23.703125 -13.265625 C 24.453125 -12.222656 24.828125 -10.832031 24.828125 -9.09375 C 24.828125 -7.394531 24.40625 -5.828125 23.5625 -4.390625 C 22.726562 -2.953125 21.453125 -1.789062 19.734375 -0.90625 C 18.015625 -0.03125 15.890625 0.40625 13.359375 0.40625 Z M 13.359375 0.40625 "/></g></g></g><g fill="#000000" fill-opacity="1"><g transform="translate(109.748967, 41.222169)"><g><path d="M 15.140625 -7.34375 L 1.484375 -7.390625 L 1.484375 -12.453125 L 13.21875 -31.375 L 22 -31.375 L 22 -12.640625 L 25.671875 -12.640625 L 25.671875 -7.34375 L 22 -7.34375 L 22 0 L 15.140625 0 Z M 15.140625 -12.765625 L 15.140625 -23.125 L 8.5625 -12.765625 Z M 15.140625 -12.765625 "/></g></g></g></g></g></g><g transform="matrix(1, 0, 0, 1, 2, 10)"><g clip-path="url(#0c516bf2ef)"><g clip-path="url(#f05f4970df)"><path fill="#000000" d="M 0.6875 18.757812 L 9.617188 31.699219 C 9.714844 31.84375 9.878906 31.925781 10.054688 31.925781 C 10.222656 31.925781 10.382812 31.84375 10.484375 31.699219 L 19.417969 18.757812 C 19.558594 18.558594 19.539062 18.285156 19.375 18.105469 C 19.207031 17.921875 18.9375 17.878906 18.726562 18 L 10.054688 22.882812 L 1.378906 18 C 1.167969 17.878906 0.898438 17.925781 0.730469 18.105469 C 0.566406 18.285156 0.546875 18.558594 0.6875 18.757812 Z M 0.6875 18.757812 " fill-opacity="1" fill-rule="nonzero"/></g><g clip-path="url(#215daef6ae)"><path fill="#000000" d="M 0.863281 15.449219 L 9.792969 20.476562 C 9.871094 20.519531 9.960938 20.542969 10.050781 20.542969 C 10.140625 20.542969 10.230469 20.519531 10.308594 20.476562 L 19.242188 15.453125 C 19.367188 15.378906 19.460938 15.261719 19.496094 15.121094 C 19.53125 14.980469 19.503906 14.832031 19.429688 14.710938 L 10.496094 0.640625 C 10.300781 0.335938 9.800781 0.335938 9.605469 0.640625 L 0.675781 14.710938 C 0.601562 14.832031 0.574219 14.980469 0.609375 15.121094 C 0.644531 15.261719 0.738281 15.378906 0.863281 15.449219 Z M 10.050781 1.902344 L 18.242188 14.804688 L 10.050781 19.414062 L 1.863281 14.804688 Z M 10.050781 1.902344 " fill-opacity="1" fill-rule="nonzero"/></g><g fill="#000000" fill-opacity="1"><g transform="translate(5.475268, 15.074202)"><g><path d="M 2.21875 0.0625 C 1.613281 0.0625 1.144531 -0.0859375 0.8125 -0.390625 C 0.476562 -0.691406 0.28125 -1.082031 0.21875 -1.5625 L 1.40625 -1.5625 C 1.457031 -1.375 1.550781 -1.222656 1.6875 -1.109375 C 1.832031 -1.003906 2.007812 -0.953125 2.21875 -0.953125 C 2.46875 -0.953125 2.660156 -1.015625 2.796875 -1.140625 C 2.941406 -1.273438 3.015625 -1.441406 3.015625 -1.640625 C 3.015625 -1.835938 2.941406 -2 2.796875 -2.125 C 2.648438 -2.25 2.460938 -2.3125 2.234375 -2.3125 L 1.78125 -2.3125 L 1.78125 -3.1875 L 2.25 -3.1875 C 2.457031 -3.1875 2.617188 -3.238281 2.734375 -3.34375 C 2.859375 -3.457031 2.921875 -3.601562 2.921875 -3.78125 C 2.921875 -3.976562 2.859375 -4.128906 2.734375 -4.234375 C 2.609375 -4.347656 2.4375 -4.40625 2.21875 -4.40625 C 2.007812 -4.40625 1.84375 -4.351562 1.71875 -4.25 C 1.59375 -4.144531 1.507812 -4 1.46875 -3.8125 L 0.328125 -3.8125 C 0.398438 -4.257812 0.585938 -4.628906 0.890625 -4.921875 C 1.191406 -5.210938 1.632812 -5.359375 2.21875 -5.359375 C 2.65625 -5.359375 3.007812 -5.28125 3.28125 -5.125 C 3.5625 -4.96875 3.765625 -4.769531 3.890625 -4.53125 C 4.015625 -4.300781 4.078125 -4.066406 4.078125 -3.828125 C 4.078125 -3.578125 4.019531 -3.367188 3.90625 -3.203125 C 3.789062 -3.046875 3.664062 -2.925781 3.53125 -2.84375 C 3.40625 -2.769531 3.328125 -2.734375 3.296875 -2.734375 L 3.296875 -2.703125 C 3.929688 -2.378906 4.164062 -2.257812 4 -2.34375 C 3.84375 -2.425781 3.828125 -2.378906 3.953125 -2.203125 C 4.078125 -2.035156 4.140625 -1.804688 4.140625 -1.515625 C 4.140625 -1.234375 4.066406 -0.972656 3.921875 -0.734375 C 3.785156 -0.492188 3.570312 -0.300781 3.28125 -0.15625 C 3 -0.0078125 2.644531 0.0625 2.21875 0.0625 Z M 2.21875 0.0625 "/></g></g></g><g fill="#000000" fill-opacity="1"><g transform="translate(9.947276, 15.074202)"><g><path d="M 2.53125 -1.21875 L 0.25 -1.234375 L 0.25 -2.078125 L 2.203125 -5.234375 L 3.671875 -5.234375 L 3.671875 -2.109375 L 4.28125 -2.109375 L 4.28125 -1.21875 L 3.671875 -1.21875 L 3.671875 0 L 2.53125 0 Z M 2.53125 -2.125 L 2.53125 -3.859375 L 1.421875 -2.125 Z M 2.53125 -2.125 "/></g></g></g></g></g></svg>