<svg xmlns="http://www.w3.org/2000/svg" xmlns:xlink="http://www.w3.org/1999/xlink" width="500" zoomAndPan="magnify" viewBox="0 0 375 374.999991" height="500" preserveAspectRatio="xMidYMid meet" version="1.2"><defs><clipPath id="45470f10e2"><path d="M 375 75 L 375 300 C 375 319.890625 367.097656 338.96875 353.03125 353.03125 C 338.96875 367.097656 319.890625 375 300 375 L 75 375 C 55.109375 375 36.03125 367.097656 21.96875 353.03125 C 7.902344 338.96875 0 319.890625 0 300 L 0 75 C 0 33.578125 33.578125 0 75 0 L 300 0 C 319.890625 0 338.96875 7.902344 353.03125 21.96875 C 367.097656 36.03125 375 55.109375 375 75 Z M 375 75 "/></clipPath><clipPath id="c1b4265518"><path d="M 375 75 L 375 300 C 375 319.890625 367.097656 338.96875 353.03125 353.03125 C 338.96875 367.097656 319.890625 375 300 375 L 75 375 C 55.109375 375 36.03125 367.097656 21.96875 353.03125 C 7.902344 338.96875 0 319.890625 0 300 L 0 75 C 0 33.578125 33.578125 0 75 0 L 300 0 C 319.890625 0 338.96875 7.902344 353.03125 21.96875 C 367.097656 36.03125 375 55.109375 375 75 Z M 375 75 "/></clipPath><clipPath id="0178dcceb4"><rect x="0" width="375" y="0" height="375"/></clipPath><clipPath id="3fc8693e0b"><path d="M 117.027344 200 L 258 200 L 258 304.796875 L 117.027344 304.796875 Z M 117.027344 200 "/></clipPath><clipPath id="e92335f0aa"><path d="M 117.027344 70.046875 L 258 70.046875 L 258 221 L 117.027344 221 Z M 117.027344 70.046875 "/></clipPath></defs><g id="b84679996e"><g clip-rule="nonzero" clip-path="url(#45470f10e2)"><g transform="matrix(1,0,0,1,0,0)"><g clip-path="url(#0178dcceb4)"><g clip-rule="nonzero" clip-path="url(#c1b4265518)"><rect x="0" width="375" height="375" y="0" style="fill:#da2620;fill-opacity:1;stroke:none;"/></g></g></g></g><g clip-rule="nonzero" clip-path="url(#3fc8693e0b)"><path style=" stroke:none;fill-rule:nonzero;fill:#ffff00;fill-opacity:1;" d="M 118.199219 206.980469 L 184.453125 303.140625 C 185.195312 304.195312 186.40625 304.820312 187.695312 304.820312 C 188.945312 304.820312 190.15625 304.195312 190.894531 303.140625 L 257.191406 206.980469 C 258.242188 205.496094 258.085938 203.46875 256.878906 202.140625 C 255.628906 200.773438 253.636719 200.460938 252.074219 201.359375 L 187.695312 237.628906 L 123.316406 201.359375 C 121.753906 200.460938 119.761719 200.8125 118.511719 202.140625 C 117.300781 203.46875 117.144531 205.496094 118.199219 206.980469 Z M 118.199219 206.980469 "/></g><g clip-rule="nonzero" clip-path="url(#e92335f0aa)"><path style=" stroke:none;fill-rule:nonzero;fill:#ffff00;fill-opacity:1;" d="M 119.492188 182.414062 L 185.761719 219.746094 C 186.355469 220.078125 187.015625 220.246094 187.679688 220.246094 C 188.34375 220.246094 189 220.078125 189.597656 219.75 L 255.898438 182.417969 C 256.832031 181.890625 257.503906 181.003906 257.765625 179.96875 C 258.027344 178.929688 257.847656 177.828125 257.28125 176.921875 L 190.972656 72.378906 C 189.542969 70.121094 185.8125 70.125 184.378906 72.378906 L 118.109375 176.917969 C 117.539062 177.824219 117.359375 178.925781 117.621094 179.964844 C 117.882812 181.003906 118.558594 181.890625 119.492188 182.414062 Z M 187.679688 81.761719 L 248.484375 177.625 L 187.679688 211.863281 L 126.910156 177.625 Z M 187.679688 81.761719 "/></g><g style="fill:#ffff00;fill-opacity:1;"><g transform="translate(153.738275, 179.543931)"><path style="stroke:none" d="M 16.515625 0.5 C 11.972656 0.5 8.472656 -0.632812 6.015625 -2.90625 C 3.554688 -5.175781 2.101562 -8.085938 1.65625 -11.640625 L 10.421875 -11.640625 C 10.796875 -10.203125 11.507812 -9.082031 12.5625 -8.28125 C 13.613281 -7.488281 14.929688 -7.09375 16.515625 -7.09375 C 18.328125 -7.09375 19.75 -7.5625 20.78125 -8.5 C 21.820312 -9.445312 22.34375 -10.660156 22.34375 -12.140625 C 22.34375 -13.648438 21.804688 -14.859375 20.734375 -15.765625 C 19.660156 -16.671875 18.273438 -17.125 16.578125 -17.125 L 13.1875 -17.125 L 13.1875 -23.671875 L 16.734375 -23.671875 C 18.253906 -23.671875 19.46875 -24.066406 20.375 -24.859375 C 21.28125 -25.660156 21.734375 -26.742188 21.734375 -28.109375 C 21.734375 -29.515625 21.25 -30.640625 20.28125 -31.484375 C 19.320312 -32.335938 18.050781 -32.765625 16.46875 -32.765625 C 14.914062 -32.765625 13.675781 -32.363281 12.75 -31.5625 C 11.820312 -30.769531 11.191406 -29.671875 10.859375 -28.265625 L 2.4375 -28.265625 C 2.957031 -31.597656 4.332031 -34.351562 6.5625 -36.53125 C 8.800781 -38.707031 12.117188 -39.796875 16.515625 -39.796875 C 19.734375 -39.796875 22.367188 -39.210938 24.421875 -38.046875 C 26.472656 -36.890625 27.957031 -35.441406 28.875 -33.703125 C 29.800781 -31.960938 30.265625 -30.207031 30.265625 -28.4375 C 30.265625 -26.59375 29.835938 -25.066406 28.984375 -23.859375 C 28.140625 -22.660156 27.226562 -21.773438 26.25 -21.203125 C 25.269531 -20.628906 24.671875 -20.34375 24.453125 -20.34375 L 24.453125 -20.015625 C 29.140625 -17.648438 30.890625 -16.78125 29.703125 -17.40625 C 28.523438 -18.03125 28.398438 -17.695312 29.328125 -16.40625 C 30.253906 -15.113281 30.71875 -13.394531 30.71875 -11.25 C 30.71875 -9.144531 30.195312 -7.203125 29.15625 -5.421875 C 28.125 -3.648438 26.546875 -2.21875 24.421875 -1.125 C 22.296875 -0.0390625 19.660156 0.5 16.515625 0.5 Z M 16.515625 0.5 "/></g></g><g style="fill:#ffff00;fill-opacity:1;"><g transform="translate(186.940628, 179.543931)"><path style="stroke:none" d="M 18.734375 -9.09375 L 1.828125 -9.140625 L 1.828125 -15.40625 L 16.359375 -38.8125 L 27.21875 -38.8125 L 27.21875 -15.640625 L 31.765625 -15.640625 L 31.765625 -9.09375 L 27.21875 -9.09375 L 27.21875 0 L 18.734375 0 Z M 18.734375 -15.796875 L 18.734375 -28.609375 L 10.59375 -15.796875 Z M 18.734375 -15.796875 "/></g></g></g></svg>