<svg xmlns="http://www.w3.org/2000/svg" xmlns:xlink="http://www.w3.org/1999/xlink" width="220" zoomAndPan="magnify" viewBox="0 0 165 54" height="72" preserveAspectRatio="xMidYMid meet" version="1.2"><defs><clipPath id="8858411ed0"><path d="M 1.5 0 L 163.5 0 L 163.5 53.019531 L 1.5 53.019531 Z M 1.5 0 "/></clipPath><clipPath id="6e7f4738c5"><path d="M 11.808594 0 L 153.191406 0 C 155.925781 0 158.546875 1.085938 160.480469 3.019531 C 162.414062 4.953125 163.5 7.574219 163.5 10.308594 L 163.5 42.710938 C 163.5 45.441406 162.414062 48.066406 160.480469 50 C 158.546875 51.933594 155.925781 53.019531 153.191406 53.019531 L 11.808594 53.019531 C 9.074219 53.019531 6.453125 51.933594 4.519531 50 C 2.585938 48.066406 1.5 45.441406 1.5 42.710938 L 1.5 10.308594 C 1.5 7.574219 2.585938 4.953125 4.519531 3.019531 C 6.453125 1.085938 9.074219 0 11.808594 0 Z M 11.808594 0 "/></clipPath><clipPath id="6a816db21d"><path d="M 0.5 0 L 162.5 0 L 162.5 53.019531 L 0.5 53.019531 Z M 0.5 0 "/></clipPath><clipPath id="b53bfe8260"><path d="M 10.808594 0 L 152.191406 0 C 154.925781 0 157.546875 1.085938 159.480469 3.019531 C 161.414062 4.953125 162.5 7.574219 162.5 10.308594 L 162.5 42.710938 C 162.5 45.441406 161.414062 48.066406 159.480469 50 C 157.546875 51.933594 154.925781 53.019531 152.191406 53.019531 L 10.808594 53.019531 C 8.074219 53.019531 5.453125 51.933594 3.519531 50 C 1.585938 48.066406 0.5 45.441406 0.5 42.710938 L 0.5 10.308594 C 0.5 7.574219 1.585938 4.953125 3.519531 3.019531 C 5.453125 1.085938 8.074219 0 10.808594 0 Z M 10.808594 0 "/></clipPath><clipPath id="ad378456bb"><rect x="0" width="163" y="0" height="54"/></clipPath><clipPath id="ed812dd750"><rect x="0" width="122" y="0" height="52"/></clipPath><clipPath id="44dc696541"><path d="M 0.925781 16 L 17.722656 16 L 17.722656 28.484375 L 0.925781 28.484375 Z M 0.925781 16 "/></clipPath><clipPath id="10731e276d"><path d="M 0.925781 0.515625 L 17.722656 0.515625 L 17.722656 19 L 0.925781 19 Z M 0.925781 0.515625 "/></clipPath><clipPath id="6a6c7b1a89"><rect x="0" width="18" y="0" height="29"/></clipPath></defs><g id="8d1d222fc1"><g clip-rule="nonzero" clip-path="url(#8858411ed0)"><g clip-rule="nonzero" clip-path="url(#6e7f4738c5)"><g transform="matrix(1,0,0,1,1,-0.000000000000014165)"><g clip-path="url(#ad378456bb)"><g clip-rule="nonzero" clip-path="url(#6a816db21d)"><g clip-rule="nonzero" clip-path="url(#b53bfe8260)"><path style=" stroke:none;fill-rule:nonzero;fill:#db261e;fill-opacity:1;" d="M 0.5 0 L 162.453125 0 L 162.453125 53.019531 L 0.5 53.019531 Z M 0.5 0 "/></g></g></g></g></g></g><g transform="matrix(1,0,0,1,32,-0.000000000000014165)"><g clip-path="url(#ed812dd750)"><g style="fill:#ffff00;fill-opacity:1;"><g transform="translate(0.180525, 40.370891)"><path style="stroke:none" d="M 8.28125 -22.359375 L 8.28125 -16.453125 L 18.828125 -16.453125 L 18.828125 -11.65625 L 8.28125 -11.65625 L 8.28125 -5.390625 L 20.8125 -5.390625 L 20.8125 0 L 2.0625 0 L 2.0625 -27.75 L 20.8125 -27.75 L 20.8125 -22.359375 Z M 8.28125 -22.359375 "/></g></g><g style="fill:#ffff00;fill-opacity:1;"><g transform="translate(22.611271, 40.370891)"><path style="stroke:none" d="M 22.125 -22.359375 L 14.828125 -22.359375 L 14.828125 0 L 8.6875 0 L 8.6875 -22.359375 L 1.390625 -22.359375 L 1.390625 -27.75 L 22.125 -27.75 Z M 22.125 -22.359375 "/></g></g><g style="fill:#ffff00;fill-opacity:1;"><g transform="translate(46.072392, 40.370891)"><path style="stroke:none" d="M 24.890625 -27.75 L 24.890625 0 L 18.671875 0 L 18.671875 -11.5 L 8.25 -11.5 L 8.25 0 L 2.0625 0 L 2.0625 -27.75 L 8.25 -27.75 L 8.25 -16.328125 L 18.671875 -16.328125 L 18.671875 -27.75 Z M 24.890625 -27.75 "/></g></g><g style="fill:#ffff00;fill-opacity:1;"><g transform="translate(73.020982, 40.370891)"><path style="stroke:none" d="M 11.8125 0.359375 C 8.5625 0.359375 6.054688 -0.453125 4.296875 -2.078125 C 2.546875 -3.703125 1.507812 -5.785156 1.1875 -8.328125 L 7.453125 -8.328125 C 7.710938 -7.296875 8.21875 -6.492188 8.96875 -5.921875 C 9.726562 -5.359375 10.675781 -5.078125 11.8125 -5.078125 C 13.101562 -5.078125 14.117188 -5.410156 14.859375 -6.078125 C 15.597656 -6.753906 15.96875 -7.625 15.96875 -8.6875 C 15.96875 -9.769531 15.582031 -10.632812 14.8125 -11.28125 C 14.050781 -11.925781 13.066406 -12.25 11.859375 -12.25 L 9.4375 -12.25 L 9.4375 -16.921875 L 11.96875 -16.921875 C 13.050781 -16.921875 13.914062 -17.203125 14.5625 -17.765625 C 15.21875 -18.335938 15.546875 -19.113281 15.546875 -20.09375 C 15.546875 -21.101562 15.203125 -21.910156 14.515625 -22.515625 C 13.828125 -23.117188 12.910156 -23.421875 11.765625 -23.421875 C 10.660156 -23.421875 9.773438 -23.132812 9.109375 -22.5625 C 8.453125 -22 8.003906 -21.21875 7.765625 -20.21875 L 1.75 -20.21875 C 2.113281 -22.59375 3.09375 -24.5625 4.6875 -26.125 C 6.289062 -27.6875 8.664062 -28.46875 11.8125 -28.46875 C 14.113281 -28.46875 15.992188 -28.050781 17.453125 -27.21875 C 18.921875 -26.382812 19.984375 -25.34375 20.640625 -24.09375 C 21.304688 -22.851562 21.640625 -21.597656 21.640625 -20.328125 C 21.640625 -19.015625 21.335938 -17.925781 20.734375 -17.0625 C 20.128906 -16.207031 19.472656 -15.570312 18.765625 -15.15625 C 18.066406 -14.75 17.640625 -14.546875 17.484375 -14.546875 L 17.484375 -14.3125 C 20.835938 -12.613281 22.09375 -11.988281 21.25 -12.4375 C 20.40625 -12.894531 20.3125 -12.660156 20.96875 -11.734375 C 21.625 -10.804688 21.953125 -9.578125 21.953125 -8.046875 C 21.953125 -6.535156 21.582031 -5.144531 20.84375 -3.875 C 20.101562 -2.613281 18.972656 -1.59375 17.453125 -0.8125 C 15.941406 -0.03125 14.0625 0.359375 11.8125 0.359375 Z M 11.8125 0.359375 "/></g></g><g style="fill:#ffff00;fill-opacity:1;"><g transform="translate(96.759525, 40.370891)"><path style="stroke:none" d="M 13.40625 -6.5 L 1.3125 -6.546875 L 1.3125 -11.015625 L 11.6875 -27.75 L 19.46875 -27.75 L 19.46875 -11.171875 L 22.71875 -11.171875 L 22.71875 -6.5 L 19.46875 -6.5 L 19.46875 0 L 13.40625 0 Z M 13.40625 -11.296875 L 13.40625 -20.453125 L 7.578125 -11.296875 Z M 13.40625 -11.296875 "/></g></g></g></g><g transform="matrix(1,0,0,1,10,12)"><g clip-path="url(#6a6c7b1a89)"><g clip-rule="nonzero" clip-path="url(#44dc696541)"><path style=" stroke:none;fill-rule:nonzero;fill:#ffff00;fill-opacity:1;" d="M 1.066406 16.828125 L 8.957031 28.285156 C 9.046875 28.410156 9.191406 28.484375 9.34375 28.484375 C 9.492188 28.484375 9.636719 28.410156 9.726562 28.285156 L 17.625 16.828125 C 17.75 16.652344 17.730469 16.410156 17.585938 16.253906 C 17.4375 16.089844 17.199219 16.054688 17.015625 16.160156 L 9.34375 20.480469 L 1.675781 16.160156 C 1.488281 16.054688 1.25 16.09375 1.101562 16.253906 C 0.957031 16.410156 0.9375 16.652344 1.066406 16.828125 Z M 1.066406 16.828125 "/></g><g clip-rule="nonzero" clip-path="url(#10731e276d)"><path style=" stroke:none;fill-rule:nonzero;fill:#ffff00;fill-opacity:1;" d="M 1.21875 13.902344 L 9.113281 18.351562 C 9.183594 18.390625 9.261719 18.410156 9.34375 18.410156 C 9.421875 18.410156 9.5 18.390625 9.570312 18.351562 L 17.46875 13.902344 C 17.582031 13.839844 17.660156 13.734375 17.691406 13.613281 C 17.722656 13.488281 17.703125 13.355469 17.632812 13.25 L 9.734375 0.792969 C 9.5625 0.523438 9.121094 0.527344 8.949219 0.792969 L 1.054688 13.25 C 0.988281 13.355469 0.964844 13.488281 0.996094 13.613281 C 1.027344 13.734375 1.109375 13.839844 1.21875 13.902344 Z M 9.34375 1.914062 L 16.585938 13.332031 L 9.34375 17.410156 L 2.101562 13.332031 Z M 9.34375 1.914062 "/></g><g style="fill:#ffff00;fill-opacity:1;"><g transform="translate(5.298713, 13.561271)"><path style="stroke:none" d="M 1.96875 0.0625 C 1.425781 0.0625 1.007812 -0.0703125 0.71875 -0.34375 C 0.425781 -0.613281 0.253906 -0.960938 0.203125 -1.390625 L 1.25 -1.390625 C 1.289062 -1.210938 1.375 -1.078125 1.5 -0.984375 C 1.625 -0.890625 1.78125 -0.84375 1.96875 -0.84375 C 2.1875 -0.84375 2.351562 -0.898438 2.46875 -1.015625 C 2.59375 -1.128906 2.65625 -1.273438 2.65625 -1.453125 C 2.65625 -1.628906 2.59375 -1.769531 2.46875 -1.875 C 2.34375 -1.988281 2.175781 -2.046875 1.96875 -2.046875 L 1.578125 -2.046875 L 1.578125 -2.828125 L 2 -2.828125 C 2.175781 -2.828125 2.316406 -2.875 2.421875 -2.96875 C 2.535156 -3.0625 2.59375 -3.1875 2.59375 -3.34375 C 2.59375 -3.519531 2.535156 -3.65625 2.421875 -3.75 C 2.304688 -3.851562 2.15625 -3.90625 1.96875 -3.90625 C 1.78125 -3.90625 1.628906 -3.859375 1.515625 -3.765625 C 1.410156 -3.671875 1.335938 -3.539062 1.296875 -3.375 L 0.296875 -3.375 C 0.359375 -3.769531 0.519531 -4.097656 0.78125 -4.359375 C 1.050781 -4.617188 1.445312 -4.75 1.96875 -4.75 C 2.351562 -4.75 2.664062 -4.675781 2.90625 -4.53125 C 3.15625 -4.394531 3.332031 -4.222656 3.4375 -4.015625 C 3.550781 -3.804688 3.609375 -3.597656 3.609375 -3.390625 C 3.609375 -3.171875 3.554688 -2.988281 3.453125 -2.84375 C 3.359375 -2.695312 3.25 -2.585938 3.125 -2.515625 C 3.007812 -2.453125 2.941406 -2.421875 2.921875 -2.421875 L 2.921875 -2.390625 C 3.472656 -2.109375 3.675781 -2.003906 3.53125 -2.078125 C 3.394531 -2.148438 3.378906 -2.109375 3.484375 -1.953125 C 3.597656 -1.796875 3.65625 -1.59375 3.65625 -1.34375 C 3.65625 -1.09375 3.59375 -0.859375 3.46875 -0.640625 C 3.351562 -0.429688 3.164062 -0.257812 2.90625 -0.125 C 2.65625 0 2.34375 0.0625 1.96875 0.0625 Z M 1.96875 0.0625 "/></g></g><g style="fill:#ffff00;fill-opacity:1;"><g transform="translate(9.254179, 13.561271)"><path style="stroke:none" d="M 2.234375 -1.078125 L 0.21875 -1.09375 L 0.21875 -1.84375 L 1.953125 -4.625 L 3.25 -4.625 L 3.25 -1.859375 L 3.78125 -1.859375 L 3.78125 -1.078125 L 3.25 -1.078125 L 3.25 0 L 2.234375 0 Z M 2.234375 -1.890625 L 2.234375 -3.40625 L 1.265625 -1.890625 Z M 2.234375 -1.890625 "/></g></g></g></g></g></svg>